<svg width="28" height="28" viewBox="0 0 28 28" fill="none" xmlns="http://www.w3.org/2000/svg">
<path d="M20.587 15.2611C20.3761 15.0502 20.09 14.9317 19.7917 14.9317C19.4933 14.9317 19.2073 15.0502 18.9963 15.2611L15.2917 18.9646L15.2838 7.25C15.2838 6.95163 15.1653 6.66548 14.9543 6.45451C14.7433 6.24353 14.4572 6.125 14.1588 6.125C13.8604 6.125 13.5743 6.24353 13.3633 6.45451C13.1523 6.66548 13.0338 6.95163 13.0338 7.25L13.0417 18.9657L9.33703 15.2611C9.23325 15.1537 9.10912 15.068 8.97186 15.009C8.83461 14.9501 8.68698 14.919 8.53761 14.9177C8.38823 14.9164 8.24009 14.9449 8.10183 15.0015C7.96357 15.058 7.83797 15.1416 7.73234 15.2472C7.62671 15.3528 7.54317 15.4784 7.48661 15.6167C7.43004 15.7549 7.40158 15.9031 7.40287 16.0525C7.40417 16.2018 7.43521 16.3495 7.49417 16.4867C7.55313 16.624 7.63883 16.7481 7.74628 16.8519L11.7794 20.8861C12.0928 21.1996 12.4649 21.4482 12.8744 21.6179C13.2839 21.7875 13.7228 21.8748 14.1661 21.8748C14.6094 21.8748 15.0483 21.7875 15.4578 21.6179C15.8673 21.4482 16.2394 21.1996 16.5528 20.8861L20.587 16.8519C20.7979 16.6409 20.9164 16.3548 20.9164 16.0565C20.9164 15.7582 20.7979 15.4721 20.587 15.2611V15.2611Z" fill="black"/>
</svg>
