<svg width="27" height="28" viewBox="0 0 27 28" fill="none" xmlns="http://www.w3.org/2000/svg">
<g clip-path="url(#clip0)">
<path d="M26.9999 26.375C26.9999 26.6734 26.8813 26.9595 26.6704 27.1705C26.4594 27.3815 26.1732 27.5 25.8749 27.5H1.12486C0.826491 27.5 0.540343 27.3815 0.329365 27.1705C0.118386 26.9595 -0.000140145 26.6734 -0.000140145 26.375C-0.000140145 26.0766 0.118386 25.7905 0.329365 25.5795C0.540343 25.3685 0.826491 25.25 1.12486 25.25H25.8749C26.1732 25.25 26.4594 25.3685 26.6704 25.5795C26.8813 25.7905 26.9999 26.0766 26.9999 26.375ZM0.327235 10.121C0.0848224 9.67137 -0.0274837 9.16307 0.00292034 8.65316C0.0333243 8.14324 0.205235 7.6519 0.49936 7.23425C0.980025 6.52901 1.62373 5.95013 2.37586 5.54675L10.8145 1.15475C11.6439 0.723461 12.565 0.498291 13.4999 0.498291C14.4347 0.498291 15.3558 0.723461 16.1852 1.15475L24.6227 5.55013C25.3749 5.95351 26.0186 6.53238 26.4992 7.23763C26.7934 7.65527 26.9653 8.14662 26.9957 8.65653C27.0261 9.16644 26.9138 9.67474 26.6714 10.1244C26.4104 10.6181 26.019 11.0307 25.5397 11.3173C25.0605 11.6039 24.5118 11.7536 23.9534 11.75H23.6249V20.75H24.7499C25.0482 20.75 25.3344 20.8685 25.5454 21.0795C25.7563 21.2905 25.8749 21.5766 25.8749 21.875C25.8749 22.1734 25.7563 22.4595 25.5454 22.6705C25.3344 22.8815 25.0482 23 24.7499 23H2.24986C1.95149 23 1.66534 22.8815 1.45436 22.6705C1.24339 22.4595 1.12486 22.1734 1.12486 21.875C1.12486 21.5766 1.24339 21.2905 1.45436 21.0795C1.66534 20.8685 1.95149 20.75 2.24986 20.75H3.37486V11.75H3.04636C2.48741 11.7535 1.93824 11.6034 1.45875 11.3162C0.979253 11.0289 0.587851 10.6155 0.327235 10.121ZM5.62486 20.75H8.99986V11.75H5.62486V20.75ZM11.2499 11.75V20.75H15.7499V11.75H11.2499ZM21.3749 11.75H17.9999V20.75H21.3749V11.75ZM2.32073 9.07813C2.39132 9.20827 2.49636 9.31647 2.62435 9.39088C2.75234 9.46529 2.89834 9.50305 3.04636 9.5H23.9534C24.1014 9.50305 24.2474 9.46529 24.3754 9.39088C24.5034 9.31647 24.6084 9.20827 24.679 9.07813C24.7304 8.99214 24.7553 8.89287 24.7505 8.7928C24.7457 8.69272 24.7114 8.5963 24.652 8.51563C24.3794 8.11053 24.0132 7.77711 23.5844 7.54363L15.1469 3.14825C14.6384 2.88435 14.0739 2.7466 13.501 2.7466C12.9281 2.7466 12.3636 2.88435 11.8551 3.14825L3.41761 7.54363C2.98897 7.77786 2.62283 8.11159 2.34998 8.51675C2.29046 8.59708 2.25594 8.69318 2.25074 8.79303C2.24553 8.89288 2.26988 8.99204 2.32073 9.07813Z" fill="black"/>
</g>
<defs>
<clipPath id="clip0">
<rect width="27" height="27" fill="white" transform="translate(0 0.5)"/>
</clipPath>
</defs>
</svg>
