<svg width="27" height="28" viewBox="0 0 27 28" fill="none" xmlns="http://www.w3.org/2000/svg">
<path d="M6.1875 19.625C7.11948 19.625 7.875 18.8695 7.875 17.9375C7.875 17.0055 7.11948 16.25 6.1875 16.25C5.25552 16.25 4.5 17.0055 4.5 17.9375C4.5 18.8695 5.25552 19.625 6.1875 19.625Z" fill="black"/>
<path d="M21.375 3.875H5.625C2.475 3.875 0 6.35 0 9.5V18.5C0 21.65 2.475 24.125 5.625 24.125H21.375C24.525 24.125 27 21.65 27 18.5V9.5C27 6.35 24.525 3.875 21.375 3.875ZM5.625 6.125H21.375C23.2875 6.125 24.75 7.5875 24.75 9.5H2.25C2.25 7.5875 3.7125 6.125 5.625 6.125ZM21.375 21.875H5.625C3.7125 21.875 2.25 20.4125 2.25 18.5V11.75H24.75V18.5C24.75 20.4125 23.2875 21.875 21.375 21.875Z" fill="black"/>
</svg>
