<svg width="28" height="28" viewBox="0 0 28 28" fill="none" xmlns="http://www.w3.org/2000/svg">
<path d="M7.41288 12.7388C7.62385 12.9497 7.90995 13.0682 8.20826 13.0682C8.50657 13.0682 8.79266 12.9497 9.00363 12.7388L12.7083 9.03534L12.7161 20.75C12.7161 21.0483 12.8347 21.3345 13.0456 21.5455C13.2566 21.7564 13.5428 21.875 13.8411 21.875C14.1395 21.875 14.4256 21.7564 14.6366 21.5455C14.8476 21.3345 14.9661 21.0483 14.9661 20.75L14.9583 9.03421L18.6629 12.7388C18.7667 12.8463 18.8908 12.932 19.0281 12.991C19.1653 13.0499 19.3129 13.0809 19.4623 13.0822C19.6117 13.0835 19.7598 13.0551 19.8981 12.9985C20.0363 12.9419 20.1619 12.8584 20.2676 12.7528C20.3732 12.6472 20.4567 12.5215 20.5133 12.3833C20.5699 12.245 20.5983 12.0969 20.597 11.9475C20.5957 11.7981 20.5647 11.6505 20.5057 11.5133C20.4468 11.376 20.3611 11.2519 20.2536 11.1481L16.2205 7.11384C15.9071 6.80038 15.535 6.55173 15.1255 6.38208C14.716 6.21244 14.2771 6.12512 13.8338 6.12512C13.3906 6.12512 12.9516 6.21244 12.5421 6.38208C12.1326 6.55173 11.7605 6.80038 11.4471 7.11384L7.41288 11.1481C7.20198 11.3591 7.0835 11.6452 7.0835 11.9435C7.0835 12.2418 7.20198 12.5279 7.41288 12.7388V12.7388Z" fill="black"/>
</svg>
