<svg width="24" height="25" viewBox="0 0 24 25" fill="none" xmlns="http://www.w3.org/2000/svg">
<g clip-path="url(#clip0)">
<path d="M19 2.33337H18V1.33337C18 1.06816 17.8946 0.813804 17.7071 0.626267C17.5196 0.438731 17.2652 0.333374 17 0.333374C16.7348 0.333374 16.4804 0.438731 16.2929 0.626267C16.1054 0.813804 16 1.06816 16 1.33337V2.33337H8V1.33337C8 1.06816 7.89464 0.813804 7.70711 0.626267C7.51957 0.438731 7.26522 0.333374 7 0.333374C6.73478 0.333374 6.48043 0.438731 6.29289 0.626267C6.10536 0.813804 6 1.06816 6 1.33337V2.33337H5C3.67441 2.33496 2.40356 2.86226 1.46622 3.79959C0.528882 4.73693 0.00158786 6.00778 0 7.33337L0 19.3334C0.00158786 20.659 0.528882 21.9298 1.46622 22.8672C2.40356 23.8045 3.67441 24.3318 5 24.3334H19C20.3256 24.3318 21.5964 23.8045 22.5338 22.8672C23.4711 21.9298 23.9984 20.659 24 19.3334V7.33337C23.9984 6.00778 23.4711 4.73693 22.5338 3.79959C21.5964 2.86226 20.3256 2.33496 19 2.33337ZM2 7.33337C2 6.53772 2.31607 5.77466 2.87868 5.21205C3.44129 4.64944 4.20435 4.33337 5 4.33337H19C19.7956 4.33337 20.5587 4.64944 21.1213 5.21205C21.6839 5.77466 22 6.53772 22 7.33337V8.33337H2V7.33337ZM19 22.3334H5C4.20435 22.3334 3.44129 22.0173 2.87868 21.4547C2.31607 20.8921 2 20.129 2 19.3334V10.3334H22V19.3334C22 20.129 21.6839 20.8921 21.1213 21.4547C20.5587 22.0173 19.7956 22.3334 19 22.3334Z" fill="white"/>
<path d="M12 16.8334C12.8284 16.8334 13.5 16.1618 13.5 15.3334C13.5 14.5049 12.8284 13.8334 12 13.8334C11.1716 13.8334 10.5 14.5049 10.5 15.3334C10.5 16.1618 11.1716 16.8334 12 16.8334Z" fill="white"/>
<path d="M7 16.8334C7.82843 16.8334 8.5 16.1618 8.5 15.3334C8.5 14.5049 7.82843 13.8334 7 13.8334C6.17157 13.8334 5.5 14.5049 5.5 15.3334C5.5 16.1618 6.17157 16.8334 7 16.8334Z" fill="white"/>
<path d="M17 16.8334C17.8284 16.8334 18.5 16.1618 18.5 15.3334C18.5 14.5049 17.8284 13.8334 17 13.8334C16.1716 13.8334 15.5 14.5049 15.5 15.3334C15.5 16.1618 16.1716 16.8334 17 16.8334Z" fill="white"/>
</g>
<defs>
<clipPath id="clip0">
<rect width="24" height="24" fill="white" transform="translate(0 0.333374)"/>
</clipPath>
</defs>
</svg>
