<svg width="24" height="25" viewBox="0 0 24 25" fill="none" xmlns="http://www.w3.org/2000/svg">
<g clip-path="url(#clip0)">
<path d="M22.3191 4.76438L8.50012 18.5824C8.40721 18.6757 8.2968 18.7497 8.17522 18.8002C8.05363 18.8507 7.92327 18.8767 7.79162 18.8767C7.65997 18.8767 7.52961 18.8507 7.40803 18.8002C7.28644 18.7497 7.17603 18.6757 7.08312 18.5824L1.73912 13.2334C1.64621 13.1401 1.5358 13.0661 1.41422 13.0156C1.29263 12.9651 1.16228 12.9391 1.03062 12.9391C0.898968 12.9391 0.768609 12.9651 0.647027 13.0156C0.525444 13.0661 0.415031 13.1401 0.322121 13.2334C0.228844 13.3263 0.154832 13.4367 0.10433 13.5583C0.0538287 13.6799 0.027832 13.8102 0.027832 13.9419C0.027832 14.0735 0.0538287 14.2039 0.10433 14.3255C0.154832 14.4471 0.228844 14.5575 0.322121 14.6504L5.66812 19.9954C6.23207 20.5583 6.99632 20.8744 7.79312 20.8744C8.58992 20.8744 9.35417 20.5583 9.91812 19.9954L23.7361 6.18038C23.8292 6.08749 23.9031 5.97714 23.9535 5.85565C24.004 5.73416 24.0299 5.60392 24.0299 5.47238C24.0299 5.34085 24.004 5.2106 23.9535 5.08911C23.9031 4.96762 23.8292 4.85727 23.7361 4.76438C23.6432 4.67111 23.5328 4.59709 23.4112 4.54659C23.2896 4.49609 23.1593 4.47009 23.0276 4.47009C22.896 4.47009 22.7656 4.49609 22.644 4.54659C22.5224 4.59709 22.412 4.67111 22.3191 4.76438Z" fill="white"/>
</g>
<defs>
<clipPath id="clip0">
<rect width="24" height="24" fill="white" transform="translate(0 0.333374)"/>
</clipPath>
</defs>
</svg>
