<svg width="24" height="25" viewBox="0 0 24 25" fill="none" xmlns="http://www.w3.org/2000/svg">
<path d="M5.5 17.6667C6.32843 17.6667 7 16.9952 7 16.1667C7 15.3383 6.32843 14.6667 5.5 14.6667C4.67157 14.6667 4 15.3383 4 16.1667C4 16.9952 4.67157 17.6667 5.5 17.6667Z" fill="white"/>
<path d="M19 3.66675H5C2.2 3.66675 0 5.86675 0 8.66675V16.6667C0 19.4667 2.2 21.6667 5 21.6667H19C21.8 21.6667 24 19.4667 24 16.6667V8.66675C24 5.86675 21.8 3.66675 19 3.66675ZM5 5.66675H19C20.7 5.66675 22 6.96675 22 8.66675H2C2 6.96675 3.3 5.66675 5 5.66675ZM19 19.6667H5C3.3 19.6667 2 18.3667 2 16.6667V10.6667H22V16.6667C22 18.3667 20.7 19.6667 19 19.6667Z" fill="white"/>
</svg>
