<svg width="24" height="25" viewBox="0 0 24 25" fill="none" xmlns="http://www.w3.org/2000/svg">
<g clip-path="url(#clip0)">
<path d="M17 14.6666C17 14.9319 16.8946 15.1862 16.7071 15.3738C16.5196 15.5613 16.2652 15.6666 16 15.6666H8C7.73478 15.6666 7.48043 15.5613 7.29289 15.3738C7.10536 15.1862 7 14.9319 7 14.6666C7 14.4014 7.10536 14.1471 7.29289 13.9595C7.48043 13.772 7.73478 13.6666 8 13.6666H16C16.2652 13.6666 16.5196 13.772 16.7071 13.9595C16.8946 14.1471 17 14.4014 17 14.6666ZM13 17.6666H8C7.73478 17.6666 7.48043 17.772 7.29289 17.9595C7.10536 18.1471 7 18.4014 7 18.6666C7 18.9319 7.10536 19.1862 7.29289 19.3738C7.48043 19.5613 7.73478 19.6666 8 19.6666H13C13.2652 19.6666 13.5196 19.5613 13.7071 19.3738C13.8946 19.1862 14 18.9319 14 18.6666C14 18.4014 13.8946 18.1471 13.7071 17.9595C13.5196 17.772 13.2652 17.6666 13 17.6666ZM22 11.1516V19.6666C21.9984 20.9922 21.4711 22.2631 20.5338 23.2004C19.5964 24.1378 18.3256 24.6651 17 24.6666H7C5.67441 24.6651 4.40356 24.1378 3.46622 23.2004C2.52888 22.2631 2.00159 20.9922 2 19.6666V5.66665C2.00159 4.34105 2.52888 3.07021 3.46622 2.13287C4.40356 1.19553 5.67441 0.668237 7 0.666649H11.515C12.4346 0.664282 13.3456 0.844237 14.1952 1.19611C15.0449 1.54798 15.8163 2.06479 16.465 2.71665L19.949 6.20265C20.6012 6.85089 21.1184 7.62211 21.4704 8.47162C21.8225 9.32114 22.0025 10.2321 22 11.1516ZM15.051 4.13065C14.7363 3.82581 14.3829 3.56357 14 3.35065V7.66665C14 7.93187 14.1054 8.18622 14.2929 8.37376C14.4804 8.56129 14.7348 8.66665 15 8.66665H19.316C19.103 8.28384 18.8404 7.93079 18.535 7.61665L15.051 4.13065ZM20 11.1516C20 10.9866 19.968 10.8286 19.953 10.6666H15C14.2044 10.6666 13.4413 10.3506 12.8787 9.78797C12.3161 9.22536 12 8.4623 12 7.66665V2.71365C11.838 2.69865 11.679 2.66665 11.515 2.66665H7C6.20435 2.66665 5.44129 2.98272 4.87868 3.54533C4.31607 4.10794 4 4.871 4 5.66665V19.6666C4 20.4623 4.31607 21.2254 4.87868 21.788C5.44129 22.3506 6.20435 22.6666 7 22.6666H17C17.7956 22.6666 18.5587 22.3506 19.1213 21.788C19.6839 21.2254 20 20.4623 20 19.6666V11.1516Z" fill="white"/>
</g>
<defs>
<clipPath id="clip0">
<rect width="24" height="24" fill="white" transform="translate(0 0.666626)"/>
</clipPath>
</defs>
</svg>
